<?xml version="1.0" encoding="utf-8"?>
<!-- Generator: Adobe Illustrator 16.0.0, SVG Export Plug-In . SVG Version: 6.00 Build 0)  -->
<!DOCTYPE svg PUBLIC "-//W3C//DTD SVG 1.1//EN" "http://www.w3.org/Graphics/SVG/1.1/DTD/svg11.dtd">
<svg version="1.1" id="Слой_1" xmlns="http://www.w3.org/2000/svg" xmlns:xlink="http://www.w3.org/1999/xlink" x="0px" y="0px"
	 width="369.802px" height="369.802px" viewBox="0 0 369.802 369.802" enable-background="new 0 0 369.802 369.802"
	 xml:space="preserve">
<g>
	<path fill-rule="evenodd" clip-rule="evenodd" d="M168.772,0c11.002,0,22.004,0,33.005,0c0.483,0.277,0.943,0.737,1.453,0.802
		c4.393,0.555,8.824,0.853,13.187,1.577c15.409,2.56,30.29,6.985,44.496,13.485c16.52,7.559,31.761,17.103,45.482,29.134
		c11.885,10.421,22.271,22.056,31.291,35.013c8.405,12.072,15.134,25.038,20.356,38.703c5.031,13.166,8.765,26.76,10.207,40.884
		c0.288,2.832,1.022,5.618,1.551,8.426c0,11.002,0,22.003,0,33.005c-0.276,0.483-0.725,0.939-0.805,1.453
		c-1.344,8.607-1.948,17.398-4.081,25.803c-6.368,25.092-16.929,48.227-33.013,68.795c-12.354,15.8-26.576,29.43-43.096,40.753
		c-12.119,8.307-25.081,14.956-38.83,20.064c-16.9,6.279-34.321,10.177-52.371,11.091c-1.12,0.057-2.22,0.533-3.328,0.814
		c-6.252,0-12.503,0-18.753,0c-0.484-0.276-0.943-0.732-1.457-0.803c-9.365-1.282-18.813-2.117-28.094-3.845
		c-23.615-4.396-45.15-14.142-64.904-27.521c-15.689-10.625-29.48-23.449-41.189-38.556c-12.385-15.978-22.123-33.274-28.867-52.29
		c-5.816-16.403-9.648-33.213-10.209-50.683c-0.02-0.617-0.525-1.219-0.805-1.828c0-6.251,0-12.502,0-18.753
		c0.529-3.811,0.908-7.65,1.615-11.428c2.051-10.948,3.463-22.093,6.527-32.758c6.572-22.882,17.568-43.6,32.621-62.176
		c11.986-14.791,25.691-27.654,41.443-38.28c11.734-7.915,24.25-14.504,37.561-19.313c13.258-4.79,26.779-8.781,40.951-10.031
		C163.427,1.3,166.089,0.526,168.772,0z M27.659,184.744c0.91,87.497,70.391,154.762,152.939,157.257
		c44.985,1.359,83.968-14.74,115.696-46.295c30.537-30.371,46.482-67.979,46.253-111.166c-0.242-45.699-17.695-84.68-51.369-115.749
		C261.381,41.298,225.632,27.3,185.225,27.23c-43.192-0.073-80.769,15.781-111.157,46.301
		C43.716,104.013,28.173,141.432,27.659,184.744z"/>
	<path fill-rule="evenodd" clip-rule="evenodd" fill="#FFFFFF" d="M-0.001,194.277c0.279,0.609,0.785,1.211,0.805,1.828
		c0.561,17.47,4.393,34.279,10.209,50.683c6.744,19.016,16.482,36.313,28.867,52.29c11.709,15.106,25.5,27.931,41.189,38.556
		c19.754,13.379,41.289,23.125,64.904,27.521c9.281,1.728,18.729,2.563,28.094,3.845c0.514,0.07,0.973,0.526,1.457,0.803
		c-58.508,0-117.018,0-175.525,0C-0.001,311.294-0.001,252.785-0.001,194.277z"/>
	<path fill-rule="evenodd" clip-rule="evenodd" fill="#FFFFFF" d="M194.277,369.802c1.108-0.281,2.208-0.758,3.328-0.814
		c18.05-0.914,35.471-4.812,52.371-11.091c13.749-5.108,26.711-11.758,38.83-20.064c16.52-11.323,30.742-24.953,43.096-40.753
		c16.084-20.568,26.645-43.703,33.013-68.795c2.133-8.404,2.737-17.195,4.081-25.803c0.08-0.514,0.528-0.97,0.805-1.453
		c0,56.196,0,112.393,0,168.773C311.293,369.802,252.785,369.802,194.277,369.802z"/>
	<path fill-rule="evenodd" clip-rule="evenodd" fill="#FFFFFF" d="M168.772,0c-2.684,0.526-5.346,1.3-8.055,1.539
		c-14.172,1.25-27.693,5.241-40.951,10.031c-13.311,4.809-25.826,11.397-37.561,19.313c-15.752,10.626-29.457,23.489-41.443,38.28
		C25.71,87.739,14.714,108.457,8.142,131.339c-3.064,10.665-4.477,21.81-6.527,32.758c-0.707,3.777-1.086,7.617-1.615,11.428
		c0-58.508,0-117.017,0-175.524C56.257,0,112.515,0,168.772,0z"/>
	<path fill-rule="evenodd" clip-rule="evenodd" fill="#FFFFFF" d="M369.801,168.023c-0.528-2.808-1.263-5.594-1.551-8.426
		c-1.442-14.124-5.176-27.718-10.207-40.884c-5.223-13.665-11.951-26.631-20.356-38.703c-9.021-12.957-19.406-24.592-31.291-35.013
		c-13.722-12.031-28.963-21.575-45.482-29.134c-14.206-6.5-29.087-10.926-44.496-13.485c-4.362-0.725-8.794-1.022-13.187-1.577
		c-0.51-0.064-0.97-0.524-1.453-0.802c56.008,0,112.016,0,168.023,0C369.801,56.008,369.801,112.016,369.801,168.023z"/>
	<path fill-rule="evenodd" clip-rule="evenodd" fill="#FFFFFF" d="M27.659,184.744c0.514-43.313,16.057-80.731,46.408-111.213
		c30.389-30.52,67.965-46.374,111.157-46.301c40.407,0.069,76.156,14.067,105.954,41.561c33.674,31.069,51.127,70.05,51.369,115.749
		c0.229,43.188-15.716,80.795-46.253,111.166c-31.729,31.555-70.711,47.654-115.696,46.295
		C98.05,339.506,28.569,272.241,27.659,184.744z M146.741,162.15c-0.385-0.545-0.768-1.091-1.152-1.637
		c19.238-19.233,38.475-38.467,57.667-57.655c-12.923,0-26.149-0.08-39.372,0.098c-1.723,0.023-3.85,0.948-5.08,2.17
		c-25.709,25.541-51.318,51.184-76.941,76.813c-0.842,0.842-1.609,1.759-2.467,2.701c26.943,26.943,53.615,53.639,80.361,80.261
		c0.82,0.816,2.389,1.221,3.617,1.236c8.496,0.105,16.994,0.056,25.492,0.056c4.802,0,9.603,0,14.403,0
		c0.257-0.41,0.513-0.82,0.769-1.23c-19.312-19.31-38.623-38.621-58.188-58.182c45.157,0,90.097,0,135.134,0
		c0-14.974,0-29.651,0-44.631C236.097,162.15,191.418,162.15,146.741,162.15z"/>
	<path fill-rule="evenodd" clip-rule="evenodd" d="M146.741,162.15c44.677,0,89.355,0,134.243,0c0,14.979,0,29.657,0,44.631
		c-45.037,0-89.977,0-135.134,0c19.564,19.561,38.876,38.872,58.188,58.182c-0.256,0.41-0.512,0.82-0.769,1.23
		c-4.801,0-9.602,0-14.403,0c-8.498,0-16.996,0.05-25.492-0.056c-1.229-0.016-2.797-0.42-3.617-1.236
		c-26.746-26.622-53.418-53.317-80.361-80.261c0.857-0.942,1.625-1.859,2.467-2.701c25.623-25.63,51.232-51.272,76.941-76.813
		c1.23-1.222,3.357-2.146,5.08-2.17c13.223-0.178,26.449-0.098,39.372-0.098c-19.192,19.188-38.429,38.422-57.667,57.655
		C145.974,161.06,146.356,161.605,146.741,162.15z"/>
</g>
</svg>
