<?xml version="1.0" encoding="utf-8"?>
<!-- Generator: Adobe Illustrator 16.0.0, SVG Export Plug-In . SVG Version: 6.00 Build 0)  -->
<!DOCTYPE svg PUBLIC "-//W3C//DTD SVG 1.1//EN" "http://www.w3.org/Graphics/SVG/1.1/DTD/svg11.dtd">
<svg version="1.1" id="Слой_1" xmlns="http://www.w3.org/2000/svg" xmlns:xlink="http://www.w3.org/1999/xlink" x="0px" y="0px"
	 width="369.802px" height="369.802px" viewBox="0 0 369.802 369.802" enable-background="new 0 0 369.802 369.802"
	 xml:space="preserve">
<g>
	<path fill-rule="evenodd" clip-rule="evenodd" d="M201.028,369.802c-11.002,0-22.003,0-33.005,0
		c-0.483-0.277-0.942-0.737-1.453-0.802c-4.392-0.555-8.824-0.853-13.187-1.577c-15.41-2.56-30.291-6.985-44.496-13.485
		c-16.52-7.559-31.761-17.103-45.482-29.134c-11.885-10.421-22.271-22.056-31.291-35.013c-8.405-12.072-15.134-25.038-20.356-38.703
		c-5.032-13.166-8.765-26.76-10.207-40.884c-0.289-2.832-1.023-5.618-1.552-8.426c0-11.002,0-22.003,0-33.005
		c0.277-0.483,0.725-0.939,0.805-1.453c1.344-8.608,1.949-17.399,4.082-25.802c6.369-25.093,16.928-48.227,33.013-68.796
		C50.253,56.923,64.476,43.293,80.994,31.97c12.12-8.307,25.082-14.956,38.831-20.064c16.9-6.279,34.321-10.176,52.371-11.091
		c1.12-0.057,2.22-0.533,3.329-0.814c6.251,0,12.502,0,18.753,0c0.484,0.276,0.943,0.732,1.456,0.802
		c9.366,1.283,18.813,2.118,28.095,3.845c23.615,4.396,45.15,14.142,64.904,27.521c15.688,10.625,29.479,23.449,41.189,38.556
		c12.385,15.978,22.123,33.275,28.866,52.29c5.817,16.403,9.649,33.212,10.209,50.683c0.021,0.617,0.525,1.219,0.805,1.828
		c0,6.251,0,12.502,0,18.753c-0.529,3.811-0.907,7.65-1.614,11.428c-2.052,10.948-3.463,22.093-6.527,32.758
		c-6.573,22.882-17.568,43.6-32.622,62.176c-11.986,14.791-25.69,27.654-41.443,38.28c-11.733,7.915-24.25,14.504-37.56,19.313
		c-13.258,4.79-26.78,8.781-40.952,10.031C206.374,368.502,203.712,369.275,201.028,369.802z M342.142,185.058
		c-0.909-87.497-70.39-154.762-152.938-157.257c-44.985-1.359-83.969,14.741-115.696,46.295
		c-30.537,30.371-46.482,67.979-46.253,111.166c0.242,45.699,17.695,84.68,51.369,115.749
		c29.798,27.493,65.547,41.491,105.954,41.561c43.192,0.073,80.77-15.781,111.158-46.301
		C326.085,265.789,341.629,228.37,342.142,185.058z"/>
	<path fill-rule="evenodd" clip-rule="evenodd" fill="#FFFFFF" d="M369.802,175.524c-0.279-0.609-0.784-1.211-0.805-1.828
		c-0.56-17.47-4.392-34.279-10.209-50.683c-6.743-19.015-16.481-36.313-28.866-52.29c-11.71-15.106-25.501-27.93-41.189-38.556
		C268.979,18.79,247.443,9.043,223.828,4.647c-9.281-1.728-18.729-2.563-28.095-3.845c-0.513-0.07-0.972-0.526-1.456-0.802
		c58.508,0,117.017,0,175.524,0C369.802,58.508,369.802,117.017,369.802,175.524z"/>
	<path fill-rule="evenodd" clip-rule="evenodd" fill="#FFFFFF" d="M175.524,0c-1.109,0.281-2.208,0.757-3.329,0.814
		c-18.05,0.915-35.471,4.812-52.371,11.091c-13.749,5.108-26.711,11.758-38.831,20.064C64.476,43.293,50.253,56.923,37.899,72.722
		c-16.084,20.569-26.644,43.703-33.013,68.796c-2.133,8.403-2.737,17.194-4.082,25.802c-0.08,0.514-0.528,0.97-0.805,1.453
		C0,112.577,0,56.38,0,0C58.508,0,117.017,0,175.524,0z"/>
	<path fill-rule="evenodd" clip-rule="evenodd" fill="#FFFFFF" d="M201.028,369.802c2.684-0.526,5.346-1.3,8.055-1.539
		c14.172-1.25,27.694-5.241,40.952-10.031c13.31-4.809,25.826-11.397,37.56-19.313c15.753-10.626,29.457-23.489,41.443-38.28
		c15.054-18.576,26.049-39.294,32.622-62.176c3.064-10.665,4.476-21.81,6.527-32.758c0.707-3.777,1.085-7.617,1.614-11.428
		c0,58.508,0,117.017,0,175.524C313.544,369.802,257.286,369.802,201.028,369.802z"/>
	<path fill-rule="evenodd" clip-rule="evenodd" fill="#FFFFFF" d="M0,201.778c0.529,2.808,1.263,5.594,1.552,8.426
		c1.442,14.124,5.175,27.718,10.207,40.884c5.222,13.665,11.951,26.631,20.356,38.703c9.02,12.957,19.406,24.592,31.291,35.013
		c13.722,12.031,28.963,21.575,45.482,29.134c14.206,6.5,29.086,10.926,44.496,13.485c4.362,0.725,8.794,1.022,13.187,1.577
		c0.51,0.064,0.97,0.524,1.453,0.802c-56.008,0-112.016,0-168.023,0C0,313.794,0,257.786,0,201.778z"/>
	<path fill-rule="evenodd" clip-rule="evenodd" fill="#FFFFFF" d="M342.142,185.058c-0.513,43.313-16.057,80.731-46.407,111.213
		c-30.389,30.52-67.966,46.374-111.158,46.301c-40.407-0.069-76.156-14.067-105.954-41.561
		c-33.674-31.069-51.127-70.05-51.369-115.749c-0.229-43.187,15.716-80.795,46.253-111.166
		c31.728-31.555,70.711-47.655,115.696-46.295C271.752,30.296,341.232,97.561,342.142,185.058z M223.061,207.651
		c0.384,0.545,0.768,1.091,1.151,1.637c-19.237,19.233-38.475,38.467-57.666,57.655c12.922,0,26.148,0.08,39.372-0.098
		c1.723-0.023,3.85-0.948,5.079-2.17c25.71-25.541,51.319-51.184,76.941-76.813c0.842-0.842,1.609-1.759,2.468-2.701
		c-26.943-26.943-53.615-53.639-80.361-80.261c-0.82-0.817-2.39-1.221-3.617-1.236c-8.496-0.105-16.995-0.056-25.493-0.056
		c-4.801,0-9.603,0-14.404,0c-0.256,0.41-0.512,0.82-0.768,1.23c19.312,19.31,38.624,38.621,58.187,58.182
		c-45.157,0-90.097,0-135.133,0c0,14.974,0,29.651,0,44.631C133.705,207.651,178.383,207.651,223.061,207.651z"/>
	<path fill-rule="evenodd" clip-rule="evenodd" d="M223.061,207.651c-44.678,0-89.356,0-134.243,0c0-14.979,0-29.657,0-44.631
		c45.036,0,89.976,0,135.133,0c-19.563-19.561-38.875-38.872-58.187-58.182c0.256-0.41,0.512-0.82,0.768-1.23
		c4.801,0,9.603,0,14.404,0c8.498,0,16.997-0.049,25.493,0.056c1.228,0.015,2.797,0.419,3.617,1.236
		c26.746,26.622,53.418,53.317,80.361,80.261c-0.858,0.942-1.626,1.859-2.468,2.701c-25.622,25.63-51.231,51.272-76.941,76.813
		c-1.229,1.222-3.356,2.146-5.079,2.17c-13.224,0.178-26.45,0.098-39.372,0.098c19.191-19.188,38.429-38.422,57.666-57.655
		C223.828,208.742,223.444,208.196,223.061,207.651z"/>
</g>
</svg>
